FFmpeg version SVN-r25716, Copyright (c) 2000-2010 the FFmpeg developers  built on Nov 10 2010 12:23:18 with gcc 4.1.2 20080704 (Red Hat 4.1.2-48)  configuration: --enable-libmp3lame --enable-shared --disable-mmx --arch=x86_64  libavutil     50.33. 0 / 50.33. 0  libavcore      0.12. 1 /  0.12. 1  libavcodec    52.94. 4 / 52.94. 4  libavformat   52.84. 0 / 52.84. 0  libavdevice   52. 2. 2 / 52. 2. 2  libavfilter    1.59. 0 /  1.59. 0  libswscale     0.12. 0 /  0.12. 0Input #0, avi, from '/RAID10/data/converted_video_files/9154.avi':  Duration: 00:00:04.80, start: 0.000000, bitrate: 20980 kb/s    Stream #0.0: Video: rawvideo, pal8, 512x512, 10 tbr, 10 tbn, 10 tbc    Metadata:      title           : ImageJ AVI     [buffer @ 0x6c9b500] w:512 h:512 pixfmt:pal8[ffsink @ 0x6c99a10] auto-inserting filter 'auto-inserted scaler 0' between the filter 'src' and the filter 'out'[scale @ 0x6c99d30] w:512 h:512 fmt:pal8 -> w:512 h:512 fmt:yuv420p flags:0x4Output #0, flv, to '/RAID10/data/converted_video_files/9154.flv':  Metadata:    encoder         : Lavf52.84.0    Stream #0.0: Video: flv, yuv420p, 512x512, q=2-31, 600 kb/s, 1k tbn, 24 tbc    Metadata:      title           : ImageJ AVI     Stream mapping:  Stream #0.0 -> #0.0Press [q] to stop encodingframe=   35 fps=  0 q=4.6 size=     221kB time=3.46 bitrate= 523.4kbits/s    frame=   48 fps=  0 q=4.2 Lsize=     284kB time=4.75 bitrate= 490.3kbits/s    video:283kB audio:0kB global headers:0kB muxing overhead 0.337104%